<svg width="233" height="117" viewBox="0 0 233 117" fill="none" xmlns="http://www.w3.org/2000/svg">
<g clip-path="url(#clip0_14_238)">
<path d="M94.4271 109.957C94.2662 109.957 94.1419 109.876 94.0834 109.746C94.0523 109.662 94.0377 109.458 94.0377 109.115C94.0377 109.048 94.0432 108.983 94.0523 108.881C94.0615 108.829 94.0725 108.789 94.0725 108.778L94.0377 108.213C94.0377 108.09 94.0523 107.659 94.0615 107.57C94.0725 107.476 94.0834 107.414 94.0834 107.414L94.0615 107.038L94.0725 106.831L94.0615 106.541L94.0834 106.337L94.0523 105.925L94.0615 105.558C94.0615 105.545 94.0615 105.508 94.0523 105.442C94.0432 105.298 94.0432 105.136 94.0432 104.971V104.714C94.0523 104.538 94.0523 104.406 94.0523 104.364C94.0523 104.089 94.0432 104.029 93.9957 103.669V103.594C93.9957 103.183 94.0834 103.051 94.3376 103.051C94.4655 103.051 94.5734 103.051 94.6849 103.064C94.7288 103.073 94.7654 103.073 94.769 103.073L95.153 103.053L95.3852 103.073L95.6174 103.064C95.6302 103.064 95.7307 103.086 95.8879 103.103L96.0635 103.136C96.451 103.211 96.8734 103.385 97.1915 103.611C97.2445 103.658 97.3177 103.708 97.3944 103.763L97.5352 103.854C97.6467 103.928 97.9429 104.328 98.0819 104.595C98.1824 104.791 98.3543 105.202 98.4439 105.466C98.5682 105.859 98.6194 106.207 98.6194 106.759C98.6194 107.48 98.4585 108.076 98.0691 108.793C97.8972 109.099 97.6705 109.337 97.2921 109.563C96.7747 109.887 96.4766 109.992 96.0159 109.992L94.7526 109.952L94.429 109.959L94.4271 109.957ZM95.5918 104.251L95.3705 104.229C95.2535 104.229 95.1237 104.353 95.1237 104.467L95.1639 104.879C95.1688 105.076 95.1737 105.298 95.1786 105.543L95.1639 105.771C95.1548 105.829 95.1548 105.903 95.1548 105.954C95.1548 106.016 95.1664 106.139 95.1895 106.323L95.1713 106.849V106.941C95.1786 107.023 95.1786 107.085 95.1786 107.085L95.1438 107.527L95.1786 107.896L95.1713 107.997C95.1639 108.072 95.1548 108.162 95.1548 108.276C95.1548 108.602 95.2224 108.697 95.4601 108.739L95.632 108.767C95.7435 108.791 95.8258 108.798 95.8678 108.798C96.0507 108.798 96.356 108.675 96.6485 108.501C96.6704 108.483 96.7984 108.356 97.0196 108.123C97.1714 107.966 97.1714 107.947 97.2482 107.67C97.2811 107.579 97.3213 107.456 97.3725 107.311C97.4548 107.085 97.495 106.9 97.495 106.726C97.495 106.348 97.4548 105.998 97.3816 105.793C97.1769 105.283 97.1074 105.107 97.0818 105.063C97.069 105.054 97.069 105.045 96.7984 104.683C96.7253 104.592 96.356 104.405 96.1092 104.346L95.983 104.306C95.8916 104.263 95.8185 104.243 95.8038 104.243L95.5954 104.251H95.5918Z" fill="white"/>
<path d="M101.523 109.948C101.375 109.948 101.25 109.948 101.19 109.939C100.903 109.92 100.695 109.897 100.685 109.897C100.678 109.897 100.596 109.92 100.477 109.939C100.38 109.957 100.283 109.97 100.206 109.97C99.859 109.97 99.678 109.752 99.678 109.345C99.678 109.291 99.6926 109.236 99.6999 109.18C99.7255 108.994 99.7438 108.851 99.7438 108.811C99.7438 108.798 99.7346 108.747 99.7273 108.675C99.7054 108.552 99.7017 108.378 99.7017 108.224C99.7017 107.989 99.7017 107.958 99.7456 107.606C99.7566 107.533 99.7621 107.443 99.7621 107.331C99.7621 107.219 99.7621 107.217 99.7456 106.755C99.7365 106.614 99.7365 106.491 99.7365 106.387C99.7365 106.315 99.7365 106.246 99.7456 106.172L99.7566 105.833C99.7566 105.752 99.7365 105.411 99.72 105.158V105.054C99.72 105.006 99.7286 104.801 99.7456 104.438V104.313C99.7456 104.229 99.7456 104.212 99.7292 104.1C99.7231 104.01 99.7158 103.917 99.7072 103.821C99.7072 103.77 99.7036 103.645 99.6816 103.435C99.6816 103.229 99.8736 103.051 100.077 103.051C100.131 103.051 100.21 103.051 100.3 103.064C100.349 103.073 100.396 103.073 100.444 103.073C100.481 103.073 100.582 103.067 100.749 103.053H100.883C100.982 103.053 101.071 103.066 101.15 103.073C101.248 103.086 101.309 103.093 101.311 103.093L101.578 103.086C101.766 103.106 101.894 103.115 101.96 103.115L102.294 103.103C102.408 103.093 102.495 103.086 102.548 103.086C102.733 103.086 102.861 103.229 102.861 103.435C102.861 103.482 102.854 103.535 102.848 103.596C102.841 103.671 102.826 103.721 102.826 103.732C102.826 103.743 102.841 103.843 102.852 103.979C102.859 104.021 102.859 104.051 102.859 104.08C102.859 104.285 102.819 104.377 102.731 104.377C102.686 104.377 102.601 104.368 102.504 104.339L102.334 104.307C102.157 104.307 102.126 104.307 102.106 104.298L101.958 104.278H101.784L101.715 104.265L101.184 104.254C101.078 104.254 100.961 104.298 100.925 104.355C100.857 104.428 100.801 104.656 100.801 104.791C100.801 104.916 100.854 105.171 100.879 105.222C100.93 105.285 101.075 105.345 101.174 105.345L101.426 105.336C101.525 105.354 101.604 105.368 101.665 105.376L101.804 105.387C101.85 105.398 101.887 105.398 101.899 105.398C101.922 105.398 101.994 105.391 102.113 105.376C102.217 105.387 102.355 105.408 102.517 105.428C102.638 105.437 102.753 105.562 102.753 105.674C102.753 105.685 102.742 105.738 102.722 105.809C102.711 105.861 102.711 105.901 102.711 105.963C102.711 106.044 102.722 106.137 102.742 106.236C102.753 106.301 102.753 106.352 102.753 106.403C102.753 106.556 102.622 106.678 102.47 106.678C102.453 106.678 102.325 106.645 102.106 106.587C102.046 106.567 101.993 106.556 101.974 106.556C101.965 106.556 101.905 106.567 101.821 106.578C101.793 106.587 101.777 106.587 101.768 106.587C101.741 106.587 101.688 106.58 101.61 106.567L101.426 106.576C101.417 106.576 101.375 106.576 101.336 106.567C101.292 106.556 101.252 106.556 101.199 106.556C101.077 106.556 100.972 106.609 100.896 106.7C100.844 106.762 100.819 106.939 100.819 107.232L100.808 107.469C100.801 107.531 100.801 107.582 100.801 107.632C100.801 107.839 100.839 108.178 100.865 108.342C100.912 108.538 101.058 108.681 101.247 108.701C101.375 108.719 101.786 108.728 102.097 108.728C102.203 108.728 102.217 108.728 102.472 108.648C102.508 108.639 102.568 108.629 102.603 108.629C102.744 108.629 102.854 108.743 102.854 108.884C102.854 108.938 102.848 108.998 102.841 109.066C102.821 109.143 102.812 109.205 102.812 109.24C102.812 109.271 102.826 109.367 102.854 109.53C102.861 109.583 102.868 109.633 102.868 109.684C102.868 109.889 102.762 109.981 102.519 109.981C102.457 109.981 102.288 109.971 102.011 109.952C101.96 109.942 101.912 109.942 101.835 109.942C101.809 109.942 101.738 109.945 101.623 109.952H101.525L101.523 109.948Z" fill="white"/>
<path d="M104.834 105.885C104.718 105.761 104.622 105.598 104.547 105.395C104.422 105.054 104.373 104.871 104.373 104.768L104.386 104.572L104.373 104.337C104.373 104.264 104.417 104.121 104.503 103.785C104.556 103.587 104.633 103.484 104.898 103.259C105.023 103.148 105.163 103.069 105.316 103.022C105.55 102.96 105.684 102.94 106.033 102.94C106.146 102.94 106.17 102.94 106.366 102.971L106.653 102.984C106.753 102.993 107.008 103.086 107.203 103.185C107.359 103.279 107.468 103.435 107.468 103.567C107.468 103.613 107.432 103.712 107.359 103.864C107.34 103.904 107.326 103.965 107.287 104.221C107.267 104.458 107.187 104.563 107.042 104.563C106.975 104.563 106.864 104.497 106.71 104.365C106.55 104.221 106.249 104.089 106.099 104.089C105.834 104.089 105.805 104.1 105.7 104.141C105.547 104.221 105.466 104.346 105.466 104.563C105.466 104.779 105.563 104.918 105.834 105.157C106.369 105.599 106.834 106.05 107.066 106.338C107.375 106.715 107.494 106.932 107.598 107.262C107.688 107.535 107.721 107.704 107.721 107.854C107.721 108.494 107.719 108.555 107.574 108.967C107.496 109.191 107.381 109.393 107.229 109.574C106.995 109.847 106.872 109.923 106.532 110.022C106.402 110.064 106.369 110.064 106.236 110.064C105.861 110.071 105.794 110.071 105.794 110.071C105.662 110.053 105.561 110.033 105.466 110.033C105.285 110.011 104.991 109.959 104.911 109.923C104.874 109.899 104.797 109.879 104.698 109.857C104.589 109.827 104.335 109.734 104.296 109.704C104.219 109.64 104.187 109.51 104.187 109.239C104.187 109.182 104.21 109.064 104.249 108.954L104.296 108.83L104.322 108.582C104.346 108.357 104.426 108.202 104.539 108.202C104.607 108.202 104.698 108.252 104.854 108.399C105.119 108.635 105.148 108.644 105.424 108.747C105.467 108.761 105.505 108.775 105.538 108.791C105.688 108.852 105.728 108.863 105.929 108.863C106.139 108.863 106.243 108.813 106.388 108.646C106.54 108.463 106.609 108.254 106.609 107.979C106.609 107.621 106.47 107.313 106.201 107.1C106.118 107.03 106.057 106.974 106.017 106.934L104.837 105.886L104.834 105.885Z" fill="white"/>
<path d="M109.635 109.957C109.467 109.957 109.344 109.876 109.282 109.746C109.251 109.662 109.238 109.458 109.238 109.115C109.238 109.048 109.245 108.983 109.251 108.881C109.262 108.829 109.276 108.789 109.276 108.778L109.24 108.213C109.24 108.09 109.253 107.659 109.264 107.57C109.276 107.476 109.284 107.414 109.284 107.414L109.264 107.038L109.276 106.831L109.264 106.541L109.284 106.337L109.253 105.925L109.264 105.558C109.264 105.545 109.264 105.508 109.253 105.442C109.247 105.298 109.247 105.136 109.247 104.971V104.714C109.253 104.538 109.253 104.406 109.253 104.364C109.253 104.089 109.247 104.029 109.191 103.669V103.594C109.191 103.183 109.284 103.051 109.531 103.051C109.66 103.051 109.772 103.051 109.882 103.064C109.925 103.073 109.964 103.073 109.971 103.073L110.35 103.053L110.578 103.073L110.812 103.064C110.832 103.064 110.929 103.086 111.085 103.103L111.266 103.136C111.646 103.211 112.07 103.385 112.392 103.611C112.449 103.658 112.513 103.708 112.589 103.763L112.736 103.854C112.847 103.928 113.141 104.328 113.275 104.595C113.383 104.791 113.553 105.202 113.637 105.466C113.767 105.859 113.82 106.207 113.82 106.759C113.82 107.48 113.657 108.076 113.266 108.793C113.09 109.099 112.864 109.337 112.489 109.563C111.971 109.887 111.668 109.992 111.211 109.992L109.955 109.952L109.635 109.959V109.957ZM110.796 104.251L110.575 104.229C110.458 104.229 110.328 104.353 110.328 104.467L110.364 104.879C110.369 105.076 110.372 105.298 110.373 105.543L110.364 105.771C110.351 105.829 110.351 105.903 110.351 105.954C110.351 106.016 110.363 106.139 110.386 106.323L110.372 106.849V106.941C110.373 107.023 110.373 107.085 110.373 107.085L110.344 107.527L110.373 107.896V107.997C110.364 108.072 110.35 108.162 110.35 108.276C110.35 108.602 110.421 108.697 110.664 108.739L110.83 108.767C110.938 108.791 111.021 108.798 111.066 108.798C111.247 108.798 111.553 108.675 111.842 108.501C111.869 108.483 111.993 108.356 112.218 108.123C112.363 107.966 112.363 107.947 112.449 107.67C112.472 107.579 112.511 107.456 112.569 107.311C112.653 107.085 112.686 106.9 112.686 106.726C112.686 106.348 112.653 105.998 112.573 105.793C112.37 105.283 112.306 105.107 112.278 105.063C112.268 105.054 112.268 105.045 111.993 104.683C111.92 104.592 111.553 104.405 111.304 104.346L111.176 104.306C111.085 104.263 111.017 104.243 111.001 104.243L110.796 104.251Z" fill="white"/>
<path d="M116.893 109.948C116.745 109.948 116.622 109.948 116.56 109.939C116.273 109.92 116.069 109.897 116.061 109.897C116.045 109.897 115.968 109.92 115.845 109.939C115.75 109.957 115.659 109.97 115.575 109.97C115.233 109.97 115.052 109.752 115.052 109.345C115.052 109.291 115.059 109.236 115.076 109.18C115.094 108.994 115.112 108.851 115.112 108.811C115.112 108.798 115.103 108.747 115.094 108.675C115.083 108.552 115.076 108.378 115.076 108.224C115.076 107.989 115.076 107.958 115.112 107.606C115.127 107.533 115.134 107.443 115.134 107.331C115.134 107.219 115.134 107.217 115.112 106.755C115.103 106.614 115.103 106.491 115.103 106.387C115.103 106.315 115.103 106.246 115.112 106.172L115.127 105.833C115.127 105.752 115.101 105.411 115.094 105.158V105.054C115.094 105.006 115.1 104.801 115.112 104.438V104.313C115.112 104.229 115.112 104.212 115.094 104.1C115.094 104.01 115.09 103.917 115.083 103.821C115.083 103.77 115.078 103.645 115.054 103.435C115.054 103.229 115.244 103.051 115.443 103.051C115.5 103.051 115.577 103.051 115.672 103.064C115.721 103.073 115.774 103.073 115.816 103.073C115.849 103.073 115.953 103.067 116.127 103.053H116.257C116.35 103.053 116.438 103.066 116.524 103.073C116.615 103.086 116.672 103.093 116.677 103.093L116.955 103.086C117.136 103.106 117.261 103.115 117.33 103.115L117.672 103.103C117.782 103.093 117.866 103.086 117.917 103.086C118.1 103.086 118.231 103.229 118.231 103.435C118.231 103.482 118.222 103.535 118.215 103.596C118.206 103.671 118.198 103.721 118.198 103.732C118.198 103.743 118.206 103.843 118.224 103.979C118.233 104.021 118.233 104.051 118.233 104.08C118.233 104.285 118.191 104.377 118.102 104.377C118.054 104.377 117.97 104.368 117.873 104.339L117.703 104.307C117.522 104.307 117.502 104.307 117.473 104.298L117.332 104.278H117.16L117.085 104.265L116.557 104.254C116.451 104.254 116.332 104.298 116.292 104.355C116.229 104.428 116.171 104.656 116.171 104.791C116.171 104.916 116.222 105.171 116.253 105.222C116.301 105.285 116.438 105.345 116.542 105.345L116.793 105.336C116.891 105.354 116.974 105.368 117.041 105.376L117.175 105.387C117.219 105.398 117.251 105.398 117.264 105.398C117.292 105.398 117.364 105.391 117.48 105.376C117.586 105.387 117.719 105.408 117.891 105.428C118.008 105.437 118.124 105.562 118.124 105.674C118.124 105.685 118.113 105.738 118.098 105.809C118.083 105.861 118.083 105.901 118.083 105.963C118.083 106.044 118.098 106.137 118.113 106.236C118.124 106.301 118.124 106.352 118.124 106.403C118.124 106.556 117.994 106.678 117.846 106.678C117.826 106.678 117.696 106.645 117.471 106.587C117.414 106.567 117.363 106.556 117.343 106.556C117.337 106.556 117.275 106.567 117.193 106.578C117.162 106.587 117.149 106.587 117.136 106.587C117.112 106.587 117.059 106.58 116.977 106.567L116.794 106.576C116.785 106.576 116.747 106.576 116.703 106.567C116.663 106.556 116.624 106.556 116.569 106.556C116.44 106.556 116.339 106.609 116.262 106.7C116.211 106.762 116.186 106.939 116.186 107.232L116.182 107.469C116.173 107.531 116.173 107.582 116.173 107.632C116.173 107.839 116.206 108.178 116.24 108.342C116.284 108.538 116.431 108.681 116.615 108.701C116.745 108.719 117.16 108.728 117.462 108.728C117.577 108.728 117.588 108.728 117.846 108.648C117.88 108.639 117.935 108.629 117.97 108.629C118.113 108.629 118.222 108.743 118.222 108.884C118.222 108.938 118.215 108.998 118.206 109.066C118.191 109.143 118.182 109.205 118.182 109.24C118.182 109.271 118.195 109.367 118.222 109.53C118.231 109.583 118.241 109.633 118.241 109.684C118.241 109.889 118.134 109.981 117.893 109.981C117.829 109.981 117.658 109.971 117.381 109.952C117.33 109.942 117.283 109.942 117.211 109.942C117.18 109.942 117.109 109.945 116.999 109.952H116.897L116.893 109.948Z" fill="white"/>
<path d="M123.33 108.307C123.321 108.215 123.321 108.132 123.321 108.061V107.929C123.33 107.846 123.33 107.795 123.33 107.784C123.33 107.753 123.321 107.681 123.31 107.579C123.309 107.476 123.309 107.373 123.309 107.239C123.309 107.168 123.309 107.087 123.31 106.992V106.818C123.31 106.77 123.3 106.603 123.279 106.315V106.214C123.279 106.181 123.279 106.141 123.292 106.101C123.31 105.875 123.312 105.71 123.312 105.701C123.31 105.578 123.31 105.569 123.31 105.529V105.426C123.312 105.321 123.312 105.239 123.312 105.188C123.312 105.087 123.281 105.015 123.234 105.015C123.17 105.015 123.012 105.151 122.738 105.413C122.716 105.437 122.672 105.446 122.628 105.446C122.539 105.446 122.48 105.413 122.407 105.29C122.383 105.243 122.254 105.048 122.233 105.026C122.093 104.83 122.065 104.779 122.065 104.678C122.065 104.54 122.126 104.441 122.274 104.317C122.48 104.153 122.528 104.109 122.628 104.008C122.676 103.948 122.738 103.898 122.789 103.845C122.826 103.794 122.943 103.68 123.003 103.649C123.043 103.598 123.085 103.561 123.124 103.508C123.405 103.148 123.513 103.077 123.771 103.077C124.19 103.077 124.457 103.295 124.457 103.614C124.457 103.675 124.449 103.757 124.424 103.869C124.367 104.155 124.334 104.41 124.334 104.527C124.334 104.555 124.342 104.709 124.347 104.936L124.352 105.18C124.352 105.573 124.352 105.582 124.376 105.827L124.352 106.328C124.352 106.352 124.365 106.473 124.376 106.645V107.243L124.387 107.348C124.398 107.52 124.407 107.654 124.407 107.696C124.407 107.705 124.407 107.727 124.398 107.766C124.395 107.856 124.395 107.922 124.395 107.94L124.398 108.395V108.545C124.395 108.64 124.395 108.712 124.395 108.719C124.395 108.771 124.398 108.947 124.424 109.172C124.433 109.357 124.449 109.612 124.449 109.715C124.449 109.889 124.342 109.983 124.146 109.983C124.122 109.983 124.039 109.976 123.899 109.963C123.899 109.963 123.848 109.975 123.778 109.975C123.735 109.985 123.678 109.985 123.614 109.985C123.354 109.985 123.272 109.873 123.272 109.495C123.272 109.406 123.29 109.098 123.325 108.573C123.334 108.477 123.334 108.415 123.334 108.397V108.314L123.33 108.307Z" fill="white"/>
<path d="M126.349 109.026C126.406 108.79 126.462 108.725 126.641 108.725C126.694 108.725 126.788 108.768 126.925 108.852C126.969 108.872 127.062 108.881 127.183 108.881C127.557 108.881 127.845 108.698 128.029 108.366C128.199 108.027 128.274 107.816 128.274 107.62C128.274 107.535 128.232 107.466 128.179 107.466C128.15 107.466 128.1 107.486 128.013 107.535C127.857 107.62 127.724 107.662 127.57 107.662C127.312 107.662 127.029 107.559 126.74 107.354C126.539 107.213 126.519 107.187 126.406 106.992C126.285 106.767 126.212 106.642 126.205 106.615C126.113 106.336 126.003 105.65 126.003 105.36C126.003 104.86 126.161 104.214 126.387 103.791C126.504 103.585 126.749 103.298 126.908 103.186C127.192 102.993 127.395 102.933 127.751 102.933C128.327 102.933 128.616 103.044 128.954 103.404C129.128 103.582 129.285 103.877 129.424 104.277C129.452 104.372 129.484 104.463 129.521 104.55C129.573 104.688 129.615 104.949 129.645 105.333C129.67 105.628 129.682 105.802 129.682 105.856C129.682 106.233 129.58 106.84 129.424 107.599C129.342 107.937 129.313 108.073 129.252 108.205C129.218 108.278 129.179 108.368 129.128 108.513C129.037 108.768 128.53 109.519 128.375 109.622C128.283 109.683 128.135 109.785 127.94 109.923C127.799 110.002 127.493 110.071 127.227 110.071C126.643 110.071 126.254 109.837 126.254 109.488C126.254 109.415 126.267 109.354 126.303 109.211L126.351 109.026H126.349ZM127.029 105.113C127.007 105.238 127.002 105.359 127.002 105.461C127.002 105.749 127.073 106.077 127.152 106.23C127.252 106.406 127.477 106.527 127.676 106.527C127.826 106.527 128.119 106.468 128.197 106.415C128.285 106.364 128.45 106.118 128.49 105.975C128.528 105.863 128.559 105.634 128.559 105.459C128.559 105.051 128.49 104.7 128.364 104.477C128.23 104.218 128.013 104.075 127.781 104.075C127.603 104.075 127.345 104.22 127.232 104.394C127.119 104.561 127.088 104.662 127.055 104.948L127.029 105.111V105.113Z" fill="white"/>
<path d="M131.68 106.233L131.647 105.934C131.647 105.831 131.722 105.72 131.832 105.668C131.876 105.65 131.933 105.639 132.274 105.606C132.419 105.584 132.507 105.544 132.77 105.38C132.931 105.279 133.053 104.999 133.053 104.733C133.053 104.385 132.77 104.075 132.457 104.075C132.379 104.075 132.22 104.104 132.115 104.148C131.995 104.188 131.949 104.22 131.858 104.35C131.748 104.52 131.656 104.568 131.516 104.568C131.362 104.568 131.335 104.535 131.172 104.302C131.172 104.293 131.099 104.218 130.978 104.075C130.901 104.001 130.872 103.913 130.872 103.818C130.872 103.688 131.037 103.481 131.327 103.264C131.344 103.244 131.496 103.174 131.755 103.048C131.976 102.934 132.234 102.874 132.488 102.874C132.962 102.874 133.466 103.11 133.691 103.44C133.849 103.666 133.925 103.8 133.933 103.809C134.019 103.983 134.132 104.476 134.132 104.64C134.132 104.883 133.982 105.338 133.746 105.758C133.713 105.8 133.706 105.842 133.706 105.87C133.706 105.943 133.75 106.002 133.914 106.145C134.158 106.383 134.269 106.525 134.382 106.792C134.439 106.935 134.516 107.388 134.516 107.594C134.516 107.847 134.485 108.228 134.454 108.373C134.376 108.702 134.282 108.948 134.172 109.112C134.062 109.276 133.872 109.478 133.6 109.719C133.423 109.873 132.967 110.007 132.609 110.007C132.234 110.007 131.81 109.853 131.45 109.585C131.011 109.279 130.821 109.044 130.821 108.826C130.821 108.725 130.828 108.712 130.945 108.549C130.974 108.514 131.021 108.445 131.086 108.342C131.207 108.136 131.254 108.098 131.388 108.098C131.521 108.098 131.518 108.098 131.843 108.478C132.018 108.67 132.276 108.793 132.514 108.793C132.797 108.793 133.055 108.621 133.24 108.29C133.324 108.157 133.437 107.728 133.437 107.564C133.437 107.242 133.355 107.058 133.159 106.884C133.07 106.805 132.839 106.719 132.726 106.719C132.485 106.719 132.408 106.732 132.146 106.812C132.082 106.833 132.033 106.844 131.976 106.844C131.795 106.844 131.682 106.697 131.682 106.464L131.686 106.228L131.68 106.233Z" fill="white"/>
<path d="M138.222 109.866C138.171 109.877 138.134 109.884 138.134 109.884C137.987 109.872 137.904 109.866 137.887 109.866C137.87 109.866 137.788 109.872 137.64 109.884L137.37 109.866L137.24 109.877L136.902 109.844C136.891 109.844 136.829 109.855 136.741 109.877C136.617 109.921 136.458 109.926 136.282 109.926C135.688 109.926 135.646 109.884 135.646 109.424V109.332L135.627 109.061V109.011C135.627 108.807 135.649 108.743 135.838 108.538C135.896 108.481 135.935 108.428 136.033 108.274C136.256 107.925 136.342 107.801 136.836 107.124C136.909 107.021 136.918 107.012 136.966 106.961C137.043 106.875 137.097 106.816 137.125 106.754C137.214 106.613 137.306 106.49 137.388 106.398C137.436 106.347 137.481 106.295 137.525 106.226C137.562 106.161 137.545 106.191 137.586 106.13C137.653 106.017 137.661 106.006 137.719 105.934C137.787 105.844 137.832 105.771 137.847 105.707C137.869 105.677 137.893 105.615 138.044 105.369C138.161 105.184 138.225 104.999 138.225 104.836C138.225 104.403 137.951 104.047 137.606 104.047C137.32 104.047 137.134 104.13 137.039 104.304C136.946 104.5 136.935 104.528 136.935 104.96C136.935 105.157 136.785 105.331 136.604 105.331H136.527C136.478 105.318 136.443 105.318 136.443 105.318C136.297 105.34 136.213 105.351 136.192 105.351C136.041 105.351 135.871 105.136 135.871 104.94C135.871 104.88 135.878 104.806 135.907 104.713L135.936 104.562L135.984 104.229C136.015 103.924 136.236 103.451 136.412 103.308C136.801 103.002 137.059 102.896 137.43 102.896C138.172 102.896 138.372 102.958 138.756 103.308C138.882 103.423 139.001 103.604 139.11 103.851C139.209 104.037 139.26 104.235 139.264 104.447L139.286 104.652C139.306 104.795 139.311 104.911 139.311 104.94C139.311 105.281 139.202 105.719 139.07 105.896C139.021 105.965 138.979 106.028 138.937 106.101C138.918 106.133 138.845 106.226 138.715 106.38C138.677 106.418 138.64 106.469 138.63 106.541C138.606 106.616 138.553 106.704 138.485 106.811L138.381 106.941C138.321 107.038 138.269 107.117 138.231 107.212C138.136 107.353 138.136 107.361 137.927 107.617C137.878 107.702 137.836 107.76 137.785 107.814C137.756 107.865 137.717 107.905 137.677 107.957L137.503 108.14C137.423 108.224 137.333 108.43 137.333 108.564C137.333 108.653 137.386 108.707 137.47 108.707C137.514 108.707 137.558 108.697 137.606 108.686L137.659 108.664C137.92 108.697 138.065 108.714 138.094 108.714C138.143 108.714 138.182 108.714 138.224 108.705C138.282 108.705 138.337 108.696 138.337 108.696L138.706 108.714C138.715 108.714 138.779 108.696 138.884 108.664C138.964 108.633 139.048 108.624 139.121 108.624C139.266 108.624 139.343 108.664 139.41 108.765C139.441 108.828 139.496 108.934 139.496 108.952L139.476 109.68C139.441 109.844 139.306 109.948 139.094 109.948C139.044 109.948 138.95 109.927 138.812 109.884C138.772 109.875 138.534 109.853 138.392 109.853L138.225 109.864L138.222 109.866Z" fill="white"/>
<path d="M95.6027 28.8275C95.1219 26.6013 94.2407 24.5512 93.9756 23.9406C93.8896 23.7352 93.7781 23.8728 93.7342 23.9204C86.081 32.2529 70.6668 23.6821 59.6879 20.2677C57.6256 19.6259 51.1005 17.992 45.3597 17.9168H45.3451C38.7779 18.8135 34.0426 20.7811 30.7974 22.624C30.1319 22.9907 29.3348 23.4638 28.4517 24.058C31.2234 22.3709 34.4686 21.5549 37.5456 21.6136C46.4311 21.7713 56.3075 25.9284 64.3007 29.2566C83.7957 37.3873 96.2499 33.4118 96.2499 33.4118C96.2499 33.4118 96.1092 31.1545 95.6064 28.8256" fill="white"/>
<path d="M86.9714 107.359C86.9714 107.359 89.7303 103.31 88.7869 102.966C87.8417 102.628 78.4809 101.002 66.2259 107.234C46.1495 117.445 35.838 112.945 33.6422 111.711C34.7099 112.411 35.3462 112.745 35.3462 112.745C36.5419 113.52 42.2388 116.17 48.9504 116.381C48.7146 116.398 48.4403 116.416 48.1405 116.436C57.3971 115.994 64.5091 112.684 71.8113 110.612C81.2708 107.928 88.0336 110.123 89.3884 110.39C90.7486 110.656 86.9714 107.357 86.9714 107.357" fill="white"/>
<path d="M10.1342 64.8094C10.1342 36.5884 25.1608 25.7126 30.7956 22.6228C34.0408 20.7799 38.776 18.8105 45.3432 17.9157C45.3579 17.9157 45.367 17.9157 45.378 17.9157C41.1199 17.8185 36.4614 18.3429 31.8139 19.9639C20.5371 23.8899 -5.72205e-06 35.7193 -5.72205e-06 64.9561C-5.72205e-06 94.193 18.2371 110.552 35.0445 115.273C40.2204 116.722 46.4896 116.572 48.9504 116.383C42.2406 116.174 36.5419 113.522 35.3462 112.747C35.3462 112.747 10.1342 99.5364 10.1342 64.8094Z" fill="white"/>
<path d="M137.397 28.8275C137.878 26.6013 138.759 24.5512 139.028 23.9406C139.116 23.7352 139.224 23.8728 139.269 23.9204C146.919 32.2529 162.331 23.6821 173.312 20.2677C175.371 19.6259 181.903 17.992 187.649 17.9168H187.657C194.222 18.8135 198.963 20.7811 202.206 22.624C202.87 22.9907 203.667 23.4638 204.55 24.058C201.771 22.3709 198.533 21.5549 195.456 21.6136C186.565 21.7713 176.693 25.9284 168.697 29.2566C149.204 37.3873 136.752 33.4118 136.752 33.4118C136.752 33.4118 136.885 31.1545 137.395 28.8256" fill="white"/>
<path d="M146.027 107.359C146.027 107.359 143.273 103.31 144.215 102.966C145.16 102.628 154.517 101.002 166.772 107.234C186.854 117.445 197.157 112.945 199.36 111.711C198.292 112.411 197.656 112.745 197.656 112.745C196.456 113.52 190.761 116.17 184.048 116.381C184.285 116.398 184.561 116.416 184.861 116.436C175.603 115.994 168.495 112.684 161.194 110.612C151.733 107.928 144.965 110.123 143.61 110.39C142.253 110.656 146.027 107.357 146.027 107.357" fill="white"/>
<path d="M222.866 64.8094C222.866 36.5884 207.834 25.7126 202.206 22.6228C198.963 20.7799 194.22 18.8105 187.657 17.9157C187.644 17.9157 187.637 17.9157 187.622 17.9157C191.882 17.8185 196.54 18.3429 201.19 19.9639C212.461 23.8899 233 35.7193 233 64.9561C233 94.193 214.767 110.552 197.955 115.273C192.78 116.722 186.514 116.572 184.048 116.383C190.761 116.174 196.456 113.522 197.656 112.747C197.656 112.747 222.866 99.5364 222.866 64.8094Z" fill="white"/>
<path d="M116.502 25.8682C105.278 25.8682 98.8955 28.5527 98.8955 28.5527C98.8955 28.5527 99.2666 30.3333 99.5116 32.9665C105.883 32.0955 111.553 31.9616 116.5 31.9616C121.447 31.9616 127.113 32.0955 133.487 32.9665C133.728 30.3314 134.103 28.5527 134.103 28.5527C134.103 28.5527 127.718 25.8682 116.5 25.8682M108.313 31.0979C107.455 31.2135 106.658 30.4946 106.525 29.4934C106.388 28.4904 106.965 27.5772 107.817 27.4617C108.669 27.348 109.468 28.0668 109.609 29.0717C109.743 30.0747 109.165 30.9806 108.315 31.0979M123.396 29.0717C123.53 28.065 124.331 27.348 125.184 27.4617C126.034 27.5772 126.614 28.4886 126.475 29.4934C126.342 30.4965 125.541 31.2153 124.689 31.0979C123.837 30.9806 123.259 30.0747 123.396 29.0717ZM118.283 28.7379C118.283 29.8913 117.485 30.8229 116.502 30.8229C115.518 30.8229 114.719 29.8913 114.719 28.7379C114.719 27.5845 115.513 26.6548 116.502 26.6548C117.491 26.6548 118.283 27.5864 118.283 28.7379Z" fill="white"/>
<path d="M133.269 14.2939C132.907 10.5036 131.726 7.60078 131.09 6.63807C127.642 7.85016 124.416 10.6741 124.365 10.7254C121.84 2.81843 116.502 0 116.502 0C116.495 0 111.156 2.81843 108.637 10.7254C108.584 10.6759 105.355 7.85016 101.907 6.63807C101.278 7.60078 100.088 10.5036 99.731 14.2939C99.5756 14.2425 95.1201 11.4168 90.5676 10.7548C94.9976 15.759 97.484 24.0493 98.6322 27.4563C102.821 26.1672 107.338 24.6764 116.504 24.6764C125.669 24.6764 130.185 26.1672 134.371 27.4563C135.514 24.0493 138.008 15.759 142.434 10.7548C137.876 11.4168 133.421 14.2425 133.271 14.2939M104.607 22.1257C104.463 21.5224 104.155 20.292 103.887 19.1881C103.457 17.4424 103.634 15.4454 104.622 14.061C106.165 14.7835 107.368 15.4143 108.137 17.7321C108.509 18.8672 109.035 20.7467 109.227 21.4142C107.474 21.6067 105.936 21.8598 104.607 22.1275M116.502 21.0401C115.379 21.0255 114.315 21.0823 113.295 21.1208L113.683 17.5891C113.825 15.4326 114.763 13.553 116.478 11.9925C116.484 11.9999 116.487 12.0054 116.502 12.0127C116.507 12.0054 116.515 12.0017 116.526 11.9925C118.233 13.553 119.175 15.4344 119.321 17.5891L119.703 21.1208C118.683 21.0823 117.615 21.0255 116.504 21.0401M129.113 19.1881C128.848 20.292 128.541 21.5242 128.395 22.1257C127.067 21.858 125.524 21.6049 123.775 21.4124C123.965 20.7467 124.488 18.8672 124.864 17.7303C125.627 15.4124 126.833 14.7816 128.378 14.0591C129.367 15.4454 129.539 17.4405 129.113 19.1862" fill="white"/>
<path d="M52.5997 76.2922C51.2833 81.973 48.5336 84.8556 44.4346 84.8556C41.3631 84.8556 39.1399 83.0953 37.9954 80.1962C36.8106 77.2109 36.5766 71.8692 36.5766 66.5056C36.5766 60.1939 37.1214 54.0161 38.8931 50.7961C40.4599 47.875 42.6813 47.2203 44.6448 47.2203C47.667 47.2203 49.6744 48.9972 50.7805 52.6408L50.8208 52.7674L50.8994 52.8755C51.3894 53.5559 52.4845 54.1848 53.2524 53.9923L53.7881 53.8602L53.8009 53.279C53.8649 51.0803 54.0879 47.3542 54.3201 45.3206L54.3841 44.7888L52.5083 43.8078L51.808 46.5639C50.1242 44.4569 47.3507 43.2705 44.0049 43.254C39.3867 43.232 35.7758 44.6623 32.441 49.1769C29.183 53.598 27.3072 59.7593 27.3072 67.4408C27.3072 73.3967 28.4444 78.7163 30.4117 82.0134C32.942 86.8984 36.9331 89.2749 42.6118 89.2749C49.2667 89.2749 53.7277 85.1509 55.1776 77.6638L55.2653 77.22L52.863 75.1186L52.5997 76.2903V76.2922Z" fill="white"/>
<path d="M77.8135 81.1511C77.8135 81.1511 77.3656 82.1065 76.7586 82.7391L76.4734 83.0307C75.1479 84.4335 74.9413 84.6462 70.7088 84.6462C66.4764 84.6462 66.3264 84.0136 66.2935 83.6945C66.193 81.7636 66.1948 78.3547 66.2003 74.7423V74.3388C66.2003 73.6237 66.2021 72.8994 66.2021 72.1769V67.8401C66.7616 67.8163 67.4764 67.8255 68.0633 67.8346C68.3339 67.8383 68.5844 67.842 68.7946 67.842C72.6358 67.842 73.4677 68.227 74.0052 70.2643L74.1369 70.7502L74.625 70.8199C75.0748 70.8804 75.7074 70.8383 75.8408 70.8236L76.5301 70.7741L76.5228 70.0553C76.5191 69.4245 76.4899 63.7894 76.6526 61.2827L76.7074 60.4759H75.5282C75.3746 60.4777 75.243 60.4777 75.126 60.4759L74.5153 60.4612L74.3818 61.0664C73.8882 63.2687 73.0582 63.9563 68.7946 63.9563C68.2937 63.9563 67.076 63.9563 66.2003 63.9233V58.3708C66.2003 54.3403 66.352 51.9381 66.4672 50.009L66.5166 49.1765C66.5166 49.0078 66.533 48.9198 66.5403 48.8703C66.5696 48.8666 66.6098 48.8648 66.6811 48.8648H69.5625C77.2906 48.8648 78.0585 51.5604 78.0585 51.5604L78.1646 52.1893L80.2945 52.2077L80.2671 51.4027C80.2506 50.8782 80.0861 46.2206 80.066 45.2102L80.0367 44.2255L79.1134 44.5024C78.2596 44.7554 75.2155 44.9388 71.868 44.9388H62.8929C61.0939 44.9388 56.6987 44.7958 56.5104 44.7903L55.7644 44.7627L55.7114 47.2126L56.4373 47.2511C57.6128 47.3135 57.622 47.55 57.6567 48.0781C57.7883 50.2621 57.8469 53.7461 57.8469 60.1037V72.0412C57.8469 77.9678 57.7682 81.8498 57.5927 84.2556C57.4849 85.7116 57.1777 85.7483 56.5104 85.8271L55.9253 85.9005L55.6511 88.4365L56.5415 88.4072C57.5397 88.376 60.922 88.2715 62.5693 88.2715H68.9263C75.0309 88.2715 76.8244 88.4017 78.8739 88.6015L79.5339 88.6675L79.6711 88.0056C79.8521 87.1144 80.6547 81.6426 80.662 81.5875L80.7936 80.7239L78.0146 80.7074L77.8135 81.1493V81.1511Z" fill="white"/>
<path d="M152.278 44.9431H147.4C141.299 44.9431 139.734 44.6643 138.333 44.3013L137.441 44.0702L137.408 44.9999C137.322 47.0372 136.743 53.2131 136.743 53.2773L136.662 54.1282L138.933 54.0585C138.933 54.0585 139.496 52.0616 140.187 50.6056C140.875 49.1514 140.992 48.7444 145.641 48.7095C145.681 50.7028 145.696 53.8714 145.696 57.9753V68.7099C145.696 78.9109 145.548 82.7544 145.438 84.7862C145.438 85.3491 145.339 85.6994 143.999 85.8295C143.698 85.8571 143.425 85.8882 143.182 85.9194L142.346 86.0239L142.546 86.8528C142.59 87.0086 142.613 87.1517 142.643 87.3002C142.681 87.4836 142.71 87.6633 142.767 87.8595L142.915 88.4444L144.61 88.3876C146.136 88.3344 147.868 88.2776 149.524 88.2776C151.908 88.2776 156.17 88.4151 156.216 88.4169L156.85 88.4408L157.3 86.0001L156.536 85.8846C156.399 85.8662 155.689 85.7599 155.197 85.6994C154.578 85.6242 154.413 85.5618 154.311 84.5258C154.183 82.9286 154.053 78.0179 154.053 69.0455V57.1721C154.053 54.3629 154.036 52.2064 154.018 50.6331C154.016 49.962 154.013 49.3697 154.005 48.8562C158.066 48.7719 158.225 49.1771 158.512 49.8868C158.956 50.9943 159.785 54.0988 159.785 54.0988L161.979 54.0236L162.008 53.3342C162.017 53.27 162.421 45.8269 162.468 45.0916L162.547 43.9345L161.483 44.3233C159.913 44.8844 159.501 44.9449 152.281 44.9449" fill="white"/>
<path d="M178.651 44.9431H173.773C167.664 44.9431 166.101 44.6643 164.703 44.3013L163.816 44.0702L163.778 44.9999C163.688 47.0372 163.116 53.2131 163.112 53.2773L163.03 54.1282L165.295 54.0585C165.295 54.0585 165.873 52.0616 166.558 50.6056C167.246 49.1514 167.361 48.7444 172.005 48.7095C172.052 50.7028 172.061 53.8714 172.061 57.9753V68.7099C172.061 78.9109 171.917 82.7544 171.806 84.7862C171.806 85.3491 171.709 85.6994 170.367 85.8295C170.063 85.8571 169.8 85.8882 169.549 85.9194L168.719 86.0239L168.913 86.8528C168.95 87.0086 168.981 87.1517 169.006 87.3002C169.048 87.4836 169.083 87.6633 169.129 87.8595L169.281 88.4444L170.977 88.3876C172.5 88.3344 174.232 88.2776 175.886 88.2776C178.279 88.2776 182.543 88.4151 182.583 88.4169L183.216 88.4408L183.667 86.0001L182.905 85.8846C182.764 85.8662 182.053 85.7599 181.558 85.6994C180.941 85.6242 180.781 85.5618 180.669 84.5258C180.55 82.9286 180.419 78.0179 180.419 69.0455V57.1721C180.419 54.3629 180.395 52.2064 180.384 50.6331C180.38 49.962 180.378 49.3697 180.378 48.8562C184.426 48.7719 184.589 49.1771 184.874 49.8868C185.32 50.9943 186.143 54.0988 186.143 54.0988L188.342 54.0236L188.375 53.3342C188.375 53.27 188.779 45.8269 188.827 45.0916L188.911 43.9345L187.841 44.3233C186.282 44.8844 185.865 44.9449 178.647 44.9449" fill="white"/>
<path d="M203.649 86.0491C201.641 85.8199 201.541 85.543 201.475 84.5528C201.466 84.2429 201.451 83.8945 201.431 83.5002L201.424 83.3682C201.34 81.3621 201.221 78.3365 201.221 73.1745V59.1686C201.221 54.8813 201.281 51.3624 201.404 48.4266C201.473 47.618 201.501 47.2824 203.594 47.1173L204.269 47.0623L204.102 44.7427L203.46 44.7592C202.903 44.7757 202.268 44.7977 201.586 44.8215C200.091 44.8784 198.403 44.9407 196.944 44.9407C195.155 44.9407 192.994 44.8912 190.536 44.7904L189.851 44.7628L189.768 45.4505C189.741 45.6247 189.73 45.8099 189.712 45.9841L189.708 46.0281C189.695 46.1345 189.686 46.2298 189.681 46.3123L189.597 47.0678L190.348 47.1485C192.633 47.3869 192.635 47.6473 192.675 48.7585C192.803 50.4621 192.803 52.5287 192.803 59.3739V73.1764C192.803 79.6989 192.743 83.1335 192.613 84.6573C192.551 85.4256 192.515 85.8932 190.368 86.0913L189.501 86.1683L189.719 87.0356C189.732 87.0778 189.739 87.131 189.756 87.1897L189.77 87.2392C189.81 87.4189 189.863 87.6444 189.933 87.8791L190.098 88.4458L190.67 88.4183C192.29 88.3559 194.681 88.2734 196.815 88.2734C198.387 88.2734 200.084 88.3357 201.577 88.3908L201.652 88.3944C202.261 88.4146 202.841 88.4384 203.36 88.4531L203.98 88.4696L204.168 87.5766C204.214 87.3455 204.272 87.1072 204.298 86.9164L204.415 86.1389L203.652 86.0491H203.649Z" fill="white"/>
<path d="M138.013 84.7051C136.454 80.6819 129.748 53.2989 128.1 44.7538L127.912 43.7691L127.035 44.2257C126.252 44.6309 122.674 45.1334 121.182 45.2159L120.559 45.2452L120.486 45.8742C120.361 46.9396 120.224 47.5905 119.994 48.6284L119.263 51.2653C117.016 59.4199 112.374 76.2681 110.458 82.3616L110.406 82.4954C110.24 82.952 110.052 83.3481 109.84 83.7002C109.606 80.185 109.304 76.358 109.09 75.0762C108.403 70.1728 105.68 67.2132 100.588 65.8691C106.194 64.2242 109.028 60.544 109.028 54.9053C109.028 51.7109 108.174 49.2427 106.503 47.5722C104.865 45.8742 102.512 44.7446 96.3468 44.7446C94.6648 44.7446 93.1181 44.7978 91.6226 44.8565C90.3464 44.9005 89.1379 44.9445 87.9952 44.9445C86.646 44.9445 83.8231 44.8381 83.2545 44.8161L82.4903 44.7868L82.461 47.266L83.7244 47.354C84.346 47.398 84.399 47.5025 84.4374 48.0013C84.5252 50.1009 84.5599 54.4487 84.5599 60.907V71.3776C84.5599 78.5254 84.4795 83.0804 84.3094 84.9141C84.2655 85.3597 84.2399 85.6824 83.1503 85.9172L82.5305 86.0474L82.5616 86.6837C82.5634 86.7973 82.5671 86.9734 82.5671 87.1751L82.5707 87.2191C82.5726 87.364 82.5726 87.5198 82.5726 87.6757L82.5908 88.444L84.1577 88.3872C85.6441 88.3322 87.3206 88.2735 88.8344 88.2735C90.3482 88.2735 92.0687 88.3377 93.5733 88.3909L95.2224 88.4532V87.6684C95.2224 87.386 95.2261 87.1971 95.2261 87.0266L95.2316 86.0455L94.6027 85.941C93.3795 85.754 93.193 85.721 93.1089 84.7362C92.9883 82.71 92.9206 79.9447 92.9206 72.443V67.3324H93.3302C98.7583 67.3324 100.003 68.3776 100.354 73.2296C100.428 74.2969 100.503 75.63 100.572 76.9154L100.576 76.9503C100.627 77.9185 100.68 78.8848 100.738 79.7467C101.022 86.3243 104.029 95.5827 109.84 95.5827C111.105 95.5827 112.867 95.3938 113.747 94.9794L114.054 94.8327L114.866 92.0711L113.388 92.7276C113.096 92.8596 112.648 92.933 112.145 92.933C111.522 92.933 110.348 92.933 110.198 89.9348C110.187 89.5681 110.163 89.0235 110.134 88.356C111.105 88.3102 112.017 88.2698 112.675 88.2698C113.875 88.2698 114.908 88.3248 115.862 88.3799L116.648 88.4275V87.6262C116.648 87.5162 116.646 87.386 116.641 87.2466V87.2081C116.639 87.0339 116.639 86.8414 116.639 86.636V86.007L116.023 85.8952C114.185 85.5578 114.231 85.2589 114.553 83.3041C114.858 81.4777 115.474 78.7473 117.409 71.4289C118.259 71.3959 119.467 71.3941 121.029 71.3959H121.464C122.981 71.3959 124.678 71.3959 125.74 71.4326C126.106 73.0628 126.482 74.7736 126.855 76.4222L126.868 76.4955C127.709 80.2326 128.499 83.7662 128.759 85.202L128.81 85.4459C128.837 85.5633 128.874 85.7026 128.877 85.798C128.504 85.9575 127.395 86.1079 127.003 86.161L126.46 86.2381L126.104 88.4935L126.998 88.4679C127.859 88.4459 128.614 88.4129 129.342 88.3817H129.386C130.722 88.3248 131.987 88.2717 133.792 88.2717C136.984 88.2717 139.31 88.4074 140.423 88.4697L141.213 88.5137V86.1922L140.5 86.161C140.48 86.161 138.498 86.0419 138.012 84.7032M93.3338 64.1674H92.9243V59.3025C92.9243 52.5141 93.0651 50.7556 93.1492 49.8075L93.1547 49.7397C93.1583 49.6388 93.1638 49.549 93.1748 49.4591C93.2552 49.008 93.3302 48.9292 93.3868 48.9053C93.8457 48.8265 94.3979 48.7916 95.067 48.7916C97.0635 48.7916 98.6194 49.6095 99.3324 51.0196L99.4074 51.1773C99.9924 52.4572 100.285 53.1027 100.285 55.5031C100.285 61.1252 99.1862 64.1692 93.3338 64.1692M122.098 68.0567C120.771 68.0622 119.378 68.0659 118.462 68.0695C119.78 62.5977 120.758 58.9303 121.625 55.6809C121.747 55.2298 121.87 54.7861 121.983 54.3441C122.594 57.1461 123.223 60.1112 123.835 62.9975V63.0305C124.199 64.7322 124.559 66.4247 124.906 68.0475L122.098 68.0567Z" fill="white"/>
</g>
<defs>
<clipPath id="clip0_14_238">
<rect width="233" height="116.5" fill="white"/>
</clipPath>
</defs>
</svg>
